<mxfile host="app.diagrams.net" modified="2024-05-27T05:56:42.921Z" agent="Mozilla/5.0 (Windows NT 10.0; Win64; x64) AppleWebKit/537.36 (KHTML, like Gecko) Chrome/125.0.0.0 Safari/537.36" version="24.2.1" etag="eJdGyoLhRbc7sNHhwnUU" type="github">
  <diagram name="第 1 页" id="gv3B43254toN5Q2PZU4G">
    <mxGraphModel>
      <root>
        <mxCell id="0" />
        <mxCell id="1" parent="0" />
      </root>
    </mxGraphModel>
  </diagram>
</mxfile>
